<svg
            xmlns:mydata="http://www.w3.org/2000/svg"
            mydata:contrastcolor="11111f"
            mydata:template="Contrast"
            mydata:presentation="2.5"
            mydata:layouttype="undefined"
            mydata:specialfontid="undefined"
            mydata:id1="185"
            mydata:id2="219"
            mydata:companyname="Cine Wave"
            mydata:companytagline="Riding the Sine Waves of Cinematic Brilliance"
            version="1.1"
            xmlns="http://www.w3.org/2000/svg"
            xmlns:xlink="http://www.w3.org/1999/xlink"
            viewBox="65 193.6755783936772 420 82.64884321264555"
            style="filter: drop-shadow(rgba(0, 0, 0, 0.4) 3px 2px 4px);"
        >
            <g
                fill="#11111f"
                fill-rule="none"
                stroke="none"
                stroke-width="1"
                stroke-linecap="butt"
                stroke-linejoin="miter"
                stroke-miterlimit="10"
                stroke-dasharray=""
                stroke-dashoffset="0"
                font-family="none"
                font-weight="none"
                font-size="none"
                text-anchor="none"
                style="mix-blend-mode: normal"
            >
                <g
                    data-paper-data='{"isGlobalGroup":true,"bounds":{"x":65,"y":193.6755783936772,"width":420,"height":82.64884321264555}}'
                >
                    <g
                        data-paper-data='{"textHeightFactor":0.33736022477545907,"isSecondaryText":true}'
                        fill-rule="nonzero"
                    >
                        <path
                            d="M108.8971,276.18576h-1.14132l-0.62933,-2.29331c-0.15644,-0.49066 -0.46577,-0.73599 -0.92799,-0.73599l-1.51465,-0.01067v3.03996h-1.05599v-7.35991c0.60444,-0.064 1.46132,-0.096 2.57064,-0.096c0.88888,0 1.51643,0.15289 1.88264,0.45866c0.36622,0.30577 0.54933,0.86399 0.54933,1.67465c0,0.59022 -0.10489,1.03465 -0.31466,1.33332c-0.20978,0.29866 -0.55644,0.47999 -1.03999,0.54399v0.05333c0.47644,0.14222 0.78577,0.49777 0.92799,1.06665zM104.68382,272.23914h1.49332c0.52622,-0.00711 0.8871,-0.10133 1.08265,-0.28266c0.19555,-0.18133 0.29333,-0.52444 0.29333,-1.02932c0,-0.49777 -0.09778,-0.83555 -0.29333,-1.01332c-0.19555,-0.17778 -0.55644,-0.26666 -1.08265,-0.26666c-0.72532,0 -1.2231,0.00356 -1.49332,0.01067z"
                            data-paper-data='{"glyphName":"R","glyphIndex":0,"firstGlyphOfWord":true,"word":1}'
                            style="fill: rgb(0, 0, 0)"
                        ></path>
                        <path
                            d="M113.52994,276.18576h-1.06665v-7.35991h1.06665z"
                            data-paper-data='{"glyphName":"I","glyphIndex":1,"word":1}'
                            style="fill: rgb(0, 0, 0)"
                        ></path>
                        <path
                            d="M117.54411,276.18576v-7.35991c0.93154,-0.064 1.81687,-0.096 2.65597,-0.096c1.08088,0 1.83642,0.27377 2.26664,0.82132c0.43022,0.54755 0.64533,1.53243 0.64533,2.95463c0,1.42221 -0.21511,2.40708 -0.64533,2.95463c-0.43022,0.54755 -1.18576,0.82132 -2.26664,0.82132c-0.8391,0 -1.72442,-0.032 -2.65597,-0.096zM118.61077,269.6685v5.65327c0.45511,0.02133 0.98488,0.032 1.58931,0.032c0.66844,0 1.13243,-0.20622 1.39198,-0.61866c0.25955,-0.41244 0.38933,-1.15554 0.38933,-2.22931c0,-1.07376 -0.12978,-1.81687 -0.38933,-2.22931c-0.25955,-0.41244 -0.72355,-0.61866 -1.39198,-0.61866c-0.21333,0 -0.49599,0.00178 -0.84799,0.00533c-0.352,0.00356 -0.5991,0.00533 -0.74132,0.00533z"
                            data-paper-data='{"glyphName":"D","glyphIndex":2,"word":1}'
                            style="fill: rgb(0, 0, 0)"
                        ></path>
                        <path
                            d="M127.92621,276.18576h-1.06665v-7.35991h1.06665z"
                            data-paper-data='{"glyphName":"I","glyphIndex":3,"word":1}'
                            style="fill: rgb(0, 0, 0)"
                        ></path>
                        <path
                            d="M137.70031,268.82584v6.94392c0,0.27733 -0.13155,0.416 -0.39466,0.416h-1.01332c-0.21333,0 -0.36622,-0.11022 -0.45866,-0.33066l-2.29331,-5.01327c-0.256,-0.55466 -0.40177,-0.89599 -0.43733,-1.02399h-0.14933c0.03556,0.28444 0.05333,0.62577 0.05333,1.02399v5.34394h-1.06665v-6.94392c0,-0.27733 0.13511,-0.416 0.40533,-0.416h0.98132c0.20622,0 0.36266,0.11022 0.46933,0.33066l2.22931,4.88527c0.02844,0.064 0.07822,0.16889 0.14933,0.31466c0.07111,0.14578 0.13689,0.28444 0.19733,0.416c0.06044,0.13155 0.11555,0.25422 0.16533,0.368h0.16c-0.03556,-0.42666 -0.05333,-0.8071 -0.05333,-1.14132v-5.17327z"
                            data-paper-data='{"glyphName":"N","glyphIndex":4,"word":1}'
                            style="fill: rgb(0, 0, 0)"
                        ></path>
                        <path
                            d="M146.83443,271.94047v4.24528h-0.78932l-0.10667,-0.74666c-0.61866,0.59022 -1.34754,0.88532 -2.18664,0.88532c-0.81066,0 -1.39732,-0.30933 -1.75998,-0.92799c-0.36266,-0.61866 -0.54399,-1.59287 -0.54399,-2.92263c0,-0.98843 0.10311,-1.75465 0.30933,-2.29864c0.20622,-0.54399 0.52977,-0.92799 0.97066,-1.15199c0.44088,-0.224 1.05954,-0.336 1.85598,-0.336c0.76799,0 1.45065,0.07467 2.04798,0.224l-0.10667,0.81066c-0.59733,-0.05689 -1.2231,-0.08533 -1.87731,-0.08533c-0.33422,0 -0.60444,0.01956 -0.81066,0.05867c-0.20622,0.03911 -0.39822,0.11555 -0.57599,0.22933c-0.17778,0.11378 -0.31111,0.28089 -0.4,0.50133c-0.08889,0.22044 -0.15822,0.50133 -0.208,0.84266c-0.04978,0.34133 -0.07467,0.76799 -0.07467,1.27998c0,1.05954 0.10844,1.79909 0.32533,2.21864c0.21689,0.41955 0.5991,0.62933 1.14665,0.62933c0.5191,0 1.09865,-0.21689 1.73865,-0.65066v-2.8053z"
                            data-paper-data='{"glyphName":"G","glyphIndex":5,"lastGlyphOfWord":true,"word":1}'
                            style="fill: rgb(0, 0, 0)"
                        ></path>
                        <path
                            d="M160.07871,269.77517h-2.33597v6.41059h-1.07732v-6.41059h-2.31464v-0.94932h5.72793z"
                            data-paper-data='{"glyphName":"T","glyphIndex":6,"firstGlyphOfWord":true,"word":2}'
                            style="fill: rgb(0, 0, 0)"
                        ></path>
                        <path
                            d="M168.79683,268.82584v7.35991h-1.06665v-3.46663h-3.22129v3.46663h-1.06665v-7.35991h1.06665v2.97596h3.22129v-2.97596z"
                            data-paper-data='{"glyphName":"H","glyphIndex":7,"word":2}'
                            style="fill: rgb(0, 0, 0)"
                        ></path>
                        <path
                            d="M177.33362,275.30043l0.05333,0.82132c-0.6471,0.05689 -1.69954,0.08533 -3.1573,0.08533c-0.45511,0 -0.81421,-0.11911 -1.07732,-0.35733c-0.26311,-0.23822 -0.39822,-0.55999 -0.40533,-0.96532v-4.75728c0.00711,-0.40533 0.14222,-0.7271 0.40533,-0.96532c0.26311,-0.23822 0.62221,-0.35733 1.07732,-0.35733c1.45776,0 2.51019,0.02844 3.1573,0.08533l-0.05333,0.83199h-2.92263c-0.21333,0 -0.36444,0.05155 -0.45333,0.15466c-0.08889,0.10311 -0.13333,0.27911 -0.13333,0.52799v1.47198h3.10396v0.86399h-3.10396v1.87731c0,0.24889 0.04444,0.42488 0.13333,0.52799c0.08889,0.10311 0.24,0.15466 0.45333,0.15466z"
                            data-paper-data='{"glyphName":"E","glyphIndex":8,"lastGlyphOfWord":true,"word":2}'
                            style="fill: rgb(0, 0, 0)"
                        ></path>
                        <path
                            d="M188.24193,273.14579l-1.49332,-0.416c-0.52622,-0.14222 -0.90132,-0.38222 -1.12532,-0.71999c-0.224,-0.33777 -0.336,-0.79466 -0.336,-1.37065c0,-0.41955 0.04444,-0.7591 0.13333,-1.01865c0.08889,-0.25955 0.24355,-0.45688 0.46399,-0.59199c0.22044,-0.13511 0.46577,-0.224 0.73599,-0.26666c0.27022,-0.04267 0.63288,-0.064 1.08799,-0.064c0.86755,0 1.60709,0.07467 2.21864,0.224l-0.064,0.77866c-1.0311,-0.03556 -1.73509,-0.05333 -2.11197,-0.05333c-0.55466,0 -0.92443,0.05511 -1.10932,0.16533c-0.18489,0.11022 -0.27733,0.39644 -0.27733,0.85866c0,0.36266 0.06578,0.61866 0.19733,0.76799c0.13155,0.14933 0.36088,0.26666 0.68799,0.352l1.46132,0.40533c0.54755,0.14933 0.93332,0.39111 1.15732,0.72532c0.224,0.33422 0.336,0.78932 0.336,1.36532c0,0.81066 -0.18489,1.35109 -0.55466,1.62131c-0.36977,0.27022 -1.02043,0.40533 -1.95198,0.40533c-0.78221,0 -1.55376,-0.07111 -2.31464,-0.21333l0.07467,-0.78932c1.10932,0.03556 1.86309,0.05333 2.26131,0.05333c0.55466,-0.00711 0.92621,-0.07822 1.11465,-0.21333c0.18844,-0.13511 0.28266,-0.42666 0.28266,-0.87466c0,-0.37688 -0.064,-0.63821 -0.192,-0.78399c-0.128,-0.14578 -0.35555,-0.26133 -0.68266,-0.34666z"
                            data-paper-data='{"glyphName":"S","glyphIndex":9,"firstGlyphOfWord":true,"word":3}'
                            style="fill: rgb(0, 0, 0)"
                        ></path>
                        <path
                            d="M194.91207,276.18576h-1.06665v-7.35991h1.06665z"
                            data-paper-data='{"glyphName":"I","glyphIndex":10,"word":3}'
                            style="fill: rgb(0, 0, 0)"
                        ></path>
                        <path
                            d="M204.68618,268.82584v6.94392c0,0.27733 -0.13155,0.416 -0.39466,0.416h-1.01332c-0.21333,0 -0.36622,-0.11022 -0.45866,-0.33066l-2.29331,-5.01327c-0.256,-0.55466 -0.40177,-0.89599 -0.43733,-1.02399h-0.14933c0.03556,0.28444 0.05333,0.62577 0.05333,1.02399v5.34394h-1.06665v-6.94392c0,-0.27733 0.13511,-0.416 0.40533,-0.416h0.98132c0.20622,0 0.36266,0.11022 0.46933,0.33066l2.22931,4.88527c0.02844,0.064 0.07822,0.16889 0.14933,0.31466c0.07111,0.14578 0.13689,0.28444 0.19733,0.416c0.06044,0.13155 0.11555,0.25422 0.16533,0.368h0.16c-0.03556,-0.42666 -0.05333,-0.8071 -0.05333,-1.14132v-5.17327z"
                            data-paper-data='{"glyphName":"N","glyphIndex":11,"word":3}'
                            style="fill: rgb(0, 0, 0)"
                        ></path>
                        <path
                            d="M213.22296,275.30043l0.05333,0.82132c-0.6471,0.05689 -1.69954,0.08533 -3.1573,0.08533c-0.45511,0 -0.81421,-0.11911 -1.07732,-0.35733c-0.26311,-0.23822 -0.39822,-0.55999 -0.40533,-0.96532v-4.75728c0.00711,-0.40533 0.14222,-0.7271 0.40533,-0.96532c0.26311,-0.23822 0.62221,-0.35733 1.07732,-0.35733c1.45776,0 2.51019,0.02844 3.1573,0.08533l-0.05333,0.83199h-2.92263c-0.21333,0 -0.36444,0.05155 -0.45333,0.15466c-0.08889,0.10311 -0.13333,0.27911 -0.13333,0.52799v1.47198h3.10396v0.86399h-3.10396v1.87731c0,0.24889 0.04444,0.42488 0.13333,0.52799c0.08889,0.10311 0.24,0.15466 0.45333,0.15466z"
                            data-paper-data='{"glyphName":"E","glyphIndex":12,"lastGlyphOfWord":true,"word":3}'
                            style="fill: rgb(0, 0, 0)"
                        ></path>
                        <path
                            d="M230.3072,268.82584l-1.40798,7.05058c-0.064,0.20622 -0.20266,0.30933 -0.416,0.30933h-1.18399c-0.22755,0 -0.36622,-0.10667 -0.416,-0.32l-1.06665,-5.40794c-0.07111,-0.36977 -0.12089,-0.6471 -0.14933,-0.83199h-0.224l-0.16,0.83199l-1.05599,5.40794c-0.01422,0.09244 -0.06222,0.16889 -0.144,0.22933c-0.08178,0.06044 -0.17244,0.09067 -0.272,0.09067h-1.19465c-0.22044,0 -0.35555,-0.10311 -0.40533,-0.30933l-1.40798,-7.05058h1.13065l1.05599,5.6106c0.02133,0.12089 0.064,0.43377 0.128,0.93866h0.24533c0.03556,-0.30577 0.08889,-0.61866 0.16,-0.93866l1.05599,-5.2586c0.04978,-0.23466 0.18489,-0.352 0.40533,-0.352h1.14132c0.09955,0 0.18666,0.03378 0.26133,0.10133c0.07467,0.06755 0.12267,0.15111 0.144,0.25066l1.04532,5.26927c0.05689,0.28444 0.11022,0.59377 0.16,0.92799h0.24533c0.01422,-0.09955 0.03556,-0.25244 0.064,-0.45866c0.02844,-0.20622 0.05333,-0.35911 0.07467,-0.45866l1.05599,-5.63193z"
                            data-paper-data='{"glyphName":"W","glyphIndex":13,"firstGlyphOfWord":true,"word":4}'
                            style="fill: rgb(0, 0, 0)"
                        ></path>
                        <path
                            d="M237.42534,273.96712h-2.9333l-0.68266,2.21864h-1.08799l2.30397,-7.07192c0.05689,-0.192 0.18844,-0.288 0.39466,-0.288h1.08799c0.21333,0 0.34133,0.096 0.384,0.288l2.31464,7.07192h-1.09865zM237.14801,273.03913l-0.86399,-2.79463c-0.02133,-0.064 -0.05155,-0.16355 -0.09067,-0.29866c-0.03911,-0.13511 -0.06933,-0.23466 -0.09067,-0.29866h-0.288l-0.17066,0.59733l-0.86399,2.79463z"
                            data-paper-data='{"glyphName":"A","glyphIndex":14,"word":4}'
                            style="fill: rgb(0, 0, 0)"
                        ></path>
                        <path
                            d="M247.53011,268.82584l-2.17597,7.06125c-0.064,0.19911 -0.19911,0.29866 -0.40533,0.29866h-1.04532c-0.20622,0 -0.34133,-0.09955 -0.40533,-0.29866l-2.17597,-7.06125h1.09865l1.66398,5.72793c0.03556,0.13511 0.10311,0.40533 0.20266,0.81066h0.288c0.04267,-0.20622 0.11022,-0.47644 0.20266,-0.81066l1.65331,-5.72793z"
                            data-paper-data='{"glyphName":"V","glyphIndex":15,"word":4}'
                            style="fill: rgb(0, 0, 0)"
                        ></path>
                        <path
                            d="M255.3309,275.30043l0.05333,0.82132c-0.6471,0.05689 -1.69954,0.08533 -3.1573,0.08533c-0.45511,0 -0.81421,-0.11911 -1.07732,-0.35733c-0.26311,-0.23822 -0.39822,-0.55999 -0.40533,-0.96532v-4.75728c0.00711,-0.40533 0.14222,-0.7271 0.40533,-0.96532c0.26311,-0.23822 0.62221,-0.35733 1.07732,-0.35733c1.45776,0 2.51019,0.02844 3.1573,0.08533l-0.05333,0.83199h-2.92263c-0.21333,0 -0.36444,0.05155 -0.45333,0.15466c-0.08889,0.10311 -0.13333,0.27911 -0.13333,0.52799v1.47198h3.10396v0.86399h-3.10396v1.87731c0,0.24889 0.04444,0.42488 0.13333,0.52799c0.08889,0.10311 0.24,0.15466 0.45333,0.15466z"
                            data-paper-data='{"glyphName":"E","glyphIndex":16,"word":4}'
                            style="fill: rgb(0, 0, 0)"
                        ></path>
                        <path
                            d="M261.64905,273.14579l-1.49332,-0.416c-0.52622,-0.14222 -0.90132,-0.38222 -1.12532,-0.71999c-0.224,-0.33777 -0.336,-0.79466 -0.336,-1.37065c0,-0.41955 0.04444,-0.7591 0.13333,-1.01865c0.08889,-0.25955 0.24355,-0.45688 0.46399,-0.59199c0.22044,-0.13511 0.46577,-0.224 0.73599,-0.26666c0.27022,-0.04267 0.63288,-0.064 1.08799,-0.064c0.86755,0 1.60709,0.07467 2.21864,0.224l-0.064,0.77866c-1.0311,-0.03556 -1.73509,-0.05333 -2.11197,-0.05333c-0.55466,0 -0.92443,0.05511 -1.10932,0.16533c-0.18489,0.11022 -0.27733,0.39644 -0.27733,0.85866c0,0.36266 0.06578,0.61866 0.19733,0.76799c0.13155,0.14933 0.36088,0.26666 0.68799,0.352l1.46132,0.40533c0.54755,0.14933 0.93332,0.39111 1.15732,0.72532c0.224,0.33422 0.336,0.78932 0.336,1.36532c0,0.81066 -0.18489,1.35109 -0.55466,1.62131c-0.36977,0.27022 -1.02043,0.40533 -1.95198,0.40533c-0.78221,0 -1.55376,-0.07111 -2.31464,-0.21333l0.07467,-0.78932c1.10932,0.03556 1.86309,0.05333 2.26131,0.05333c0.55466,-0.00711 0.92621,-0.07822 1.11465,-0.21333c0.18844,-0.13511 0.28266,-0.42666 0.28266,-0.87466c0,-0.37688 -0.064,-0.63821 -0.192,-0.78399c-0.128,-0.14578 -0.35555,-0.26133 -0.68266,-0.34666z"
                            data-paper-data='{"glyphName":"S","glyphIndex":17,"lastGlyphOfWord":true,"word":4}'
                            style="fill: rgb(0, 0, 0)"
                        ></path>
                        <path
                            d="M274.50934,268.68718c1.0951,0 1.85953,0.27733 2.29331,0.83199c0.43377,0.55466 0.65066,1.5502 0.65066,2.98663c0,1.43643 -0.21689,2.43197 -0.65066,2.98663c-0.43377,0.55466 -1.19821,0.83199 -2.29331,0.83199c-1.08799,0 -1.84887,-0.27733 -2.28264,-0.83199c-0.43377,-0.55466 -0.65066,-1.5502 -0.65066,-2.98663c0,-1.43643 0.21689,-2.43197 0.65066,-2.98663c0.43377,-0.55466 1.19465,-0.83199 2.28264,-0.83199zM275.93866,270.25516c0,0 -0.06578,-0.10311 -0.19733,-0.30933c-0.13155,-0.20622 -0.54222,-0.30933 -1.23199,-0.30933c-0.68977,0 -1.16443,0.20622 -1.42398,0.61866c-0.25955,0.41244 -0.38933,1.16265 -0.38933,2.25064c0,1.08799 0.12978,1.8382 0.38933,2.25064c0.25955,0.41244 0.73421,0.61866 1.42398,0.61866c0.68977,0 1.16621,-0.20622 1.42932,-0.61866c0.26311,-0.41244 0.39466,-1.16265 0.39466,-2.25064c0,-1.08799 -0.13155,-1.8382 -0.39466,-2.25064z"
                            data-paper-data='{"glyphName":"O","glyphIndex":18,"firstGlyphOfWord":true,"word":5}'
                            style="fill: rgb(0, 0, 0)"
                        ></path>
                        <path
                            d="M285.65943,269.72183h-2.73063c-0.24889,0 -0.42488,0.05155 -0.52799,0.15466c-0.10311,0.10311 -0.15466,0.27911 -0.15466,0.52799v1.58931h3.00796v0.86399h-3.00796v3.32796h-1.06665v-6.00526c0,-0.43377 0.13333,-0.77155 0.4,-1.01332c0.26666,-0.24177 0.62755,-0.36266 1.08265,-0.36266c1.40798,0 2.42486,0.032 3.05063,0.096z"
                            data-paper-data='{"glyphName":"F","glyphIndex":19,"lastGlyphOfWord":true,"word":5}'
                            style="fill: rgb(0, 0, 0)"
                        ></path>
                        <path
                            d="M298.49838,275.2471l0.10667,0.81066c-0.59022,0.17066 -1.3191,0.256 -2.18664,0.256c-1.07376,0 -1.82753,-0.28444 -2.26131,-0.85332c-0.43377,-0.56888 -0.65066,-1.55376 -0.65066,-2.95463c0,-1.40087 0.21689,-2.38575 0.65066,-2.95463c0.43377,-0.56888 1.18754,-0.85332 2.26131,-0.85332c0.76799,0 1.44709,0.07111 2.03731,0.21333l-0.10667,0.82132c-0.56888,-0.05689 -1.21243,-0.08533 -1.93064,-0.08533c-0.67555,0 -1.1431,0.20622 -1.40265,0.61866c-0.25955,0.41244 -0.38933,1.1591 -0.38933,2.23997c0,1.08088 0.12978,1.82753 0.38933,2.23997c0.25955,0.41244 0.7271,0.61866 1.40265,0.61866c0.9031,0 1.59643,-0.03911 2.07998,-0.11733z"
                            data-paper-data='{"glyphName":"C","glyphIndex":20,"firstGlyphOfWord":true,"word":6}'
                            style="fill: rgb(0, 0, 0)"
                        ></path>
                        <path
                            d="M303.16322,276.18576h-1.06665v-7.35991h1.06665z"
                            data-paper-data='{"glyphName":"I","glyphIndex":21,"word":6}'
                            style="fill: rgb(0, 0, 0)"
                        ></path>
                        <path
                            d="M312.93732,268.82584v6.94392c0,0.27733 -0.13155,0.416 -0.39466,0.416h-1.01332c-0.21333,0 -0.36622,-0.11022 -0.45866,-0.33066l-2.29331,-5.01327c-0.256,-0.55466 -0.40177,-0.89599 -0.43733,-1.02399h-0.14933c0.03556,0.28444 0.05333,0.62577 0.05333,1.02399v5.34394h-1.06665v-6.94392c0,-0.27733 0.13511,-0.416 0.40533,-0.416h0.98132c0.20622,0 0.36266,0.11022 0.46933,0.33066l2.22931,4.88527c0.02844,0.064 0.07822,0.16889 0.14933,0.31466c0.07111,0.14578 0.13689,0.28444 0.19733,0.416c0.06044,0.13155 0.11555,0.25422 0.16533,0.368h0.16c-0.03556,-0.42666 -0.05333,-0.8071 -0.05333,-1.14132v-5.17327z"
                            data-paper-data='{"glyphName":"N","glyphIndex":22,"word":6}'
                            style="fill: rgb(0, 0, 0)"
                        ></path>
                        <path
                            d="M321.47411,275.30043l0.05333,0.82132c-0.6471,0.05689 -1.69954,0.08533 -3.1573,0.08533c-0.45511,0 -0.81421,-0.11911 -1.07732,-0.35733c-0.26311,-0.23822 -0.39822,-0.55999 -0.40533,-0.96532v-4.75728c0.00711,-0.40533 0.14222,-0.7271 0.40533,-0.96532c0.26311,-0.23822 0.62221,-0.35733 1.07732,-0.35733c1.45776,0 2.51019,0.02844 3.1573,0.08533l-0.05333,0.83199h-2.92263c-0.21333,0 -0.36444,0.05155 -0.45333,0.15466c-0.08889,0.10311 -0.13333,0.27911 -0.13333,0.52799v1.47198h3.10396v0.86399h-3.10396v1.87731c0,0.24889 0.04444,0.42488 0.13333,0.52799c0.08889,0.10311 0.24,0.15466 0.45333,0.15466z"
                            data-paper-data='{"glyphName":"E","glyphIndex":23,"word":6}'
                            style="fill: rgb(0, 0, 0)"
                        ></path>
                        <path
                            d="M331.02422,268.82584h1.16265c0.27733,0 0.42311,0.14578 0.43733,0.43733l0.29866,6.92258h-1.06665l-0.256,-6.47459h-0.21333l-1.49332,5.23727c-0.064,0.24177 -0.21689,0.36266 -0.45866,0.36266h-0.92799c-0.24889,0 -0.40533,-0.12089 -0.46933,-0.36266l-1.50398,-5.23727h-0.20266l-0.24533,6.47459h-1.05599l0.27733,-6.92258c0.01422,-0.29155 0.16,-0.43733 0.43733,-0.43733h1.18399c0.22044,0 0.36977,0.12089 0.44799,0.36266l1.24799,4.30928c0.07111,0.256 0.15289,0.58666 0.24533,0.99199h0.192c0.08533,-0.37688 0.17066,-0.7111 0.256,-1.00265l1.23732,-4.29862c0.07822,-0.24177 0.23466,-0.36266 0.46933,-0.36266z"
                            data-paper-data='{"glyphName":"M","glyphIndex":24,"word":6}'
                            style="fill: rgb(0, 0, 0)"
                        ></path>
                        <path
                            d="M340.69166,273.96712h-2.9333l-0.68266,2.21864h-1.08799l2.30397,-7.07192c0.05689,-0.192 0.18844,-0.288 0.39466,-0.288h1.08799c0.21333,0 0.34133,0.096 0.384,0.288l2.31464,7.07192h-1.09865zM340.41433,273.03913l-0.86399,-2.79463c-0.02133,-0.064 -0.05155,-0.16355 -0.09067,-0.29866c-0.03911,-0.13511 -0.06933,-0.23466 -0.09067,-0.29866h-0.288l-0.17066,0.59733l-0.86399,2.79463z"
                            data-paper-data='{"glyphName":"A","glyphIndex":25,"word":6}'
                            style="fill: rgb(0, 0, 0)"
                        ></path>
                        <path
                            d="M350.15643,269.77517h-2.33597v6.41059h-1.07732v-6.41059h-2.31464v-0.94932h5.72793z"
                            data-paper-data='{"glyphName":"T","glyphIndex":26,"word":6}'
                            style="fill: rgb(0, 0, 0)"
                        ></path>
                        <path
                            d="M354.5866,276.18576h-1.06665v-7.35991h1.06665z"
                            data-paper-data='{"glyphName":"I","glyphIndex":27,"word":6}'
                            style="fill: rgb(0, 0, 0)"
                        ></path>
                        <path
                            d="M363.32605,275.2471l0.10667,0.81066c-0.59022,0.17066 -1.3191,0.256 -2.18664,0.256c-1.07376,0 -1.82753,-0.28444 -2.26131,-0.85332c-0.43377,-0.56888 -0.65066,-1.55376 -0.65066,-2.95463c0,-1.40087 0.21689,-2.38575 0.65066,-2.95463c0.43377,-0.56888 1.18754,-0.85332 2.26131,-0.85332c0.76799,0 1.44709,0.07111 2.03731,0.21333l-0.10667,0.82132c-0.56888,-0.05689 -1.21243,-0.08533 -1.93064,-0.08533c-0.67555,0 -1.1431,0.20622 -1.40265,0.61866c-0.25955,0.41244 -0.38933,1.1591 -0.38933,2.23997c0,1.08088 0.12978,1.82753 0.38933,2.23997c0.25955,0.41244 0.7271,0.61866 1.40265,0.61866c0.9031,0 1.59643,-0.03911 2.07998,-0.11733z"
                            data-paper-data='{"glyphName":"C","glyphIndex":28,"lastGlyphOfWord":true,"word":6}'
                            style="fill: rgb(0, 0, 0)"
                        ></path>
                        <path
                            d="M375.18369,272.3458v0.04267c0.53333,0.04978 0.91199,0.23644 1.13599,0.55999c0.224,0.32355 0.336,0.7911 0.336,1.40265c0,0.73955 -0.176,1.24443 -0.52799,1.51465c-0.352,0.27022 -0.96532,0.40533 -1.83998,0.40533c-1.20176,0 -2.1262,-0.02844 -2.7733,-0.08533v-7.35991c0.57599,-0.05689 1.39376,-0.08533 2.4533,-0.08533c0.92443,0 1.5662,0.13333 1.92531,0.4c0.35911,0.26666 0.53866,0.77332 0.53866,1.51998c0,0.53333 -0.09955,0.93688 -0.29866,1.21065c-0.19911,0.27377 -0.51555,0.43199 -0.94932,0.47466zM372.55972,271.96181h1.49332c0.51199,0 0.86577,-0.08 1.06132,-0.24c0.19555,-0.16 0.29333,-0.47111 0.29333,-0.93332c0,-0.45511 -0.10667,-0.7591 -0.32,-0.91199c-0.21333,-0.15289 -0.60444,-0.22933 -1.17332,-0.22933h-1.35465zM372.55972,275.35377l1.56798,0.01067c0.56177,0 0.94399,-0.08 1.14665,-0.24c0.20266,-0.16 0.304,-0.47822 0.304,-0.95466c0,-0.53333 -0.10844,-0.89599 -0.32533,-1.08799c-0.21689,-0.192 -0.61333,-0.29155 -1.18932,-0.29866h-1.50398z"
                            data-paper-data='{"glyphName":"B","glyphIndex":29,"firstGlyphOfWord":true,"word":7}'
                            style="fill: rgb(0, 0, 0)"
                        ></path>
                        <path
                            d="M385.64045,276.18576h-1.14132l-0.62933,-2.29331c-0.15644,-0.49066 -0.46577,-0.73599 -0.92799,-0.73599l-1.51465,-0.01067v3.03996h-1.05599v-7.35991c0.60444,-0.064 1.46132,-0.096 2.57064,-0.096c0.88888,0 1.51643,0.15289 1.88264,0.45866c0.36622,0.30577 0.54933,0.86399 0.54933,1.67465c0,0.59022 -0.10489,1.03465 -0.31466,1.33332c-0.20978,0.29866 -0.55644,0.47999 -1.03999,0.54399v0.05333c0.47644,0.14222 0.78577,0.49777 0.92799,1.06665zM381.42717,272.23914h1.49332c0.52622,-0.00711 0.8871,-0.10133 1.08265,-0.28266c0.19555,-0.18133 0.29333,-0.52444 0.29333,-1.02932c0,-0.49777 -0.09778,-0.83555 -0.29333,-1.01332c-0.19555,-0.17778 -0.55644,-0.26666 -1.08265,-0.26666c-0.72532,0 -1.2231,0.00356 -1.49332,0.01067z"
                            data-paper-data='{"glyphName":"R","glyphIndex":30,"word":7}'
                            style="fill: rgb(0, 0, 0)"
                        ></path>
                        <path
                            d="M390.27328,276.18576h-1.06665v-7.35991h1.06665z"
                            data-paper-data='{"glyphName":"I","glyphIndex":31,"word":7}'
                            style="fill: rgb(0, 0, 0)"
                        ></path>
                        <path
                            d="M395.33278,268.82584v5.78126c0,0.24889 0.04978,0.42488 0.14933,0.52799c0.09955,0.10311 0.27377,0.15466 0.52266,0.15466h2.6133l0.05333,0.82132c-0.68977,0.064 -1.63554,0.096 -2.8373,0.096c-1.04532,0 -1.56798,-0.48355 -1.56798,-1.45065v-5.9306z"
                            data-paper-data='{"glyphName":"L","glyphIndex":32,"word":7}'
                            style="fill: rgb(0, 0, 0)"
                        ></path>
                        <path
                            d="M403.04824,268.82584v5.78126c0,0.24889 0.04978,0.42488 0.14933,0.52799c0.09955,0.10311 0.27377,0.15466 0.52266,0.15466h2.6133l0.05333,0.82132c-0.68977,0.064 -1.63554,0.096 -2.8373,0.096c-1.04532,0 -1.56798,-0.48355 -1.56798,-1.45065v-5.9306z"
                            data-paper-data='{"glyphName":"L","glyphIndex":33,"word":7}'
                            style="fill: rgb(0, 0, 0)"
                        ></path>
                        <path
                            d="M410.78504,276.18576h-1.06665v-7.35991h1.06665z"
                            data-paper-data='{"glyphName":"I","glyphIndex":34,"word":7}'
                            style="fill: rgb(0, 0, 0)"
                        ></path>
                        <path
                            d="M418.70316,273.96712h-2.9333l-0.68266,2.21864h-1.08799l2.30397,-7.07192c0.05689,-0.192 0.18844,-0.288 0.39466,-0.288h1.08799c0.21333,0 0.34133,0.096 0.384,0.288l2.31464,7.07192h-1.09865zM418.42583,273.03913l-0.86399,-2.79463c-0.02133,-0.064 -0.05155,-0.16355 -0.09067,-0.29866c-0.03911,-0.13511 -0.06933,-0.23466 -0.09067,-0.29866h-0.288l-0.17066,0.59733l-0.86399,2.79463z"
                            data-paper-data='{"glyphName":"A","glyphIndex":35,"word":7}'
                            style="fill: rgb(0, 0, 0)"
                        ></path>
                        <path
                            d="M429.45859,268.82584v6.94392c0,0.27733 -0.13155,0.416 -0.39466,0.416h-1.01332c-0.21333,0 -0.36622,-0.11022 -0.45866,-0.33066l-2.29331,-5.01327c-0.256,-0.55466 -0.40177,-0.89599 -0.43733,-1.02399h-0.14933c0.03556,0.28444 0.05333,0.62577 0.05333,1.02399v5.34394h-1.06665v-6.94392c0,-0.27733 0.13511,-0.416 0.40533,-0.416h0.98132c0.20622,0 0.36266,0.11022 0.46933,0.33066l2.22931,4.88527c0.02844,0.064 0.07822,0.16889 0.14933,0.31466c0.07111,0.14578 0.13689,0.28444 0.19733,0.416c0.06044,0.13155 0.11555,0.25422 0.16533,0.368h0.16c-0.03556,-0.42666 -0.05333,-0.8071 -0.05333,-1.14132v-5.17327z"
                            data-paper-data='{"glyphName":"N","glyphIndex":36,"word":7}'
                            style="fill: rgb(0, 0, 0)"
                        ></path>
                        <path
                            d="M438.19804,275.2471l0.10667,0.81066c-0.59022,0.17066 -1.3191,0.256 -2.18664,0.256c-1.07376,0 -1.82753,-0.28444 -2.26131,-0.85332c-0.43377,-0.56888 -0.65066,-1.55376 -0.65066,-2.95463c0,-1.40087 0.21689,-2.38575 0.65066,-2.95463c0.43377,-0.56888 1.18754,-0.85332 2.26131,-0.85332c0.76799,0 1.44709,0.07111 2.03731,0.21333l-0.10667,0.82132c-0.56888,-0.05689 -1.21243,-0.08533 -1.93064,-0.08533c-0.67555,0 -1.1431,0.20622 -1.40265,0.61866c-0.25955,0.41244 -0.38933,1.1591 -0.38933,2.23997c0,1.08088 0.12978,1.82753 0.38933,2.23997c0.25955,0.41244 0.7271,0.61866 1.40265,0.61866c0.9031,0 1.59643,-0.03911 2.07998,-0.11733z"
                            data-paper-data='{"glyphName":"C","glyphIndex":37,"word":7}'
                            style="fill: rgb(0, 0, 0)"
                        ></path>
                        <path
                            d="M446.31883,275.30043l0.05333,0.82132c-0.6471,0.05689 -1.69954,0.08533 -3.1573,0.08533c-0.45511,0 -0.81421,-0.11911 -1.07732,-0.35733c-0.26311,-0.23822 -0.39822,-0.55999 -0.40533,-0.96532v-4.75728c0.00711,-0.40533 0.14222,-0.7271 0.40533,-0.96532c0.26311,-0.23822 0.62221,-0.35733 1.07732,-0.35733c1.45776,0 2.51019,0.02844 3.1573,0.08533l-0.05333,0.83199h-2.92263c-0.21333,0 -0.36444,0.05155 -0.45333,0.15466c-0.08889,0.10311 -0.13333,0.27911 -0.13333,0.52799v1.47198h3.10396v0.86399h-3.10396v1.87731c0,0.24889 0.04444,0.42488 0.13333,0.52799c0.08889,0.10311 0.24,0.15466 0.45333,0.15466z"
                            data-paper-data='{"glyphName":"E","glyphIndex":38,"lastGlyphOfWord":true,"word":7}'
                            style="fill: rgb(0, 0, 0)"
                        ></path>
                        <path
                            d="M65,254.62094v-0.93476h420v0.93476z"
                            data-paper-data='{"isContainerTopLineAboveSecondaryText":true}'
                            style="fill: rgb(0, 0, 0)"
                        ></path>
                    </g>
                    <g data-paper-data='{"isPrimaryText":true}'>
                        <path
                            d="M82.28247,206.95222c-3.88444,0 -6.93768,1.3003 -9.15971,3.9009c-2.22203,2.6006 -3.33305,6.15585 -3.33305,10.66575c0,4.65804 1.0781,8.25032 3.23429,10.77686c2.15619,2.52653 5.22589,3.7898 9.20909,3.7898c2.56768,0 5.45632,-0.47733 8.66593,-1.43198v3.95028c-1.53073,0.55962 -3.00386,0.94231 -4.41937,1.14805c-1.41552,0.20574 -3.04501,0.30862 -4.88847,0.30862c-5.31642,0 -9.41072,-1.61715 -12.2829,-4.85144c-2.87218,-3.23429 -4.30827,-7.81415 -4.30827,-13.73956c0,-3.71985 0.68718,-6.97883 2.06155,-9.77694c1.37437,-2.79811 3.3742,-4.95431 5.99949,-6.46858c2.62529,-1.51427 5.71556,-2.27141 9.27081,-2.27141c3.8186,0 7.14342,0.70776 9.97446,2.12328l-1.827,3.85152c-2.88041,-1.31676 -5.61269,-1.97514 -8.19683,-1.97514z"
                            data-paper-data='{"glyphName":"C","glyphIndex":0,"firstGlyphOfWord":true,"word":1}'
                            fill-rule="nonzero"
                            style="fill: rgb(0, 0, 0)"
                        ></path>
                        <path
                            d="M119.45625,239.56671h-13.03592v-2.61706l4.24655,-0.96288v-28.88642l-4.24655,-1.01226v-2.61706h13.03592v2.61706l-4.24655,1.01226v28.88642l4.24655,0.96288z"
                            data-paper-data='{"glyphName":"I","glyphIndex":1,"word":1}'
                            fill-rule="nonzero"
                            style="fill: rgb(0, 0, 0)"
                        ></path>
                        <path
                            d="M165.59221,239.56671h-5.30819l-19.33168,-29.97274h-0.19751l0.12345,1.99983c0.19751,2.99563 0.29627,5.59623 0.29627,7.8018v20.17111h-4.19717v-36.09568h5.25881l1.11102,1.75294l11.85084,18.31942l6.29576,9.80163h0.19751c-0.03292,-0.39503 -0.09876,-1.80643 -0.19751,-4.23421c-0.09876,-2.42778 -0.14814,-4.18483 -0.14814,-5.27115v-20.36863h4.24655z"
                            data-paper-data='{"glyphName":"N","glyphIndex":2,"word":1}'
                            fill-rule="nonzero"
                            style="fill: rgb(0, 0, 0)"
                        ></path>
                        <path
                            d="M206.09904,239.56671h-20.17111v-36.09568h20.17111v3.99966h-15.62829v11.2583h14.71479v3.95028h-14.71479v12.88779h15.62829z"
                            data-paper-data='{"glyphName":"E","glyphIndex":3,"lastGlyphOfWord":true,"word":1}'
                            fill-rule="nonzero"
                            style="fill: rgb(0, 0, 0)"
                        ></path>
                        <path
                            d="M357.3566,239.56671h-4.5922l-7.03643,-23.6523c-1.03695,-3.52233 -1.64595,-5.90073 -1.827,-7.13519c-0.26335,1.89284 -0.83943,4.32062 -1.72825,7.28333l-6.81423,23.50416h-4.5922l-9.55474,-36.09568h4.74034l5.60446,22.0475c0.75714,2.88041 1.33322,5.74436 1.72825,8.59186c0.36211,-2.69936 1.00403,-5.65384 1.92576,-8.86344l6.36983,-21.77591h4.69096l6.64141,21.94874c0.85589,2.84749 1.51427,5.74436 1.97514,8.69061c0.26335,-2.27141 0.84766,-5.15182 1.75294,-8.64124l5.57977,-21.99812h4.74034z"
                            data-paper-data='{"glyphName":"W","glyphIndex":4,"firstGlyphOfWord":true,"word":2}'
                            fill-rule="nonzero"
                            style="fill: rgb(0, 0, 0)"
                        ></path>
                        <path
                            d="M404.72703,239.56671l-4.34531,-11.18423h-14.31976l-4.29593,11.18423h-4.5922l14.09756,-36.24381h4.09841l14.07287,36.24381zM399.02382,224.35814l-4.04904,-10.93734l-1.72825,-5.40694c-0.49378,1.97514 -1.01226,3.77745 -1.55542,5.40694l-4.09841,10.93734z"
                            data-paper-data='{"glyphName":"A","glyphIndex":5,"word":2}'
                            fill-rule="nonzero"
                            style="fill: rgb(0, 0, 0)"
                        ></path>
                        <path
                            d="M419.03857,203.47104h4.76502l8.12276,23.15851c1.03695,2.92979 1.79409,5.55508 2.27141,7.87587c0.41149,-2.0739 1.17685,-4.73211 2.2961,-7.97463l8.07338,-23.05976h4.8144l-12.88779,36.09568h-4.56751z"
                            data-paper-data='{"glyphName":"V","glyphIndex":6,"word":2}'
                            fill-rule="nonzero"
                            style="fill: rgb(0, 0, 0)"
                        ></path>
                        <path
                            d="M485,239.56671h-20.17111v-36.09568h20.17111v3.99966h-15.62829v11.2583h14.71479v3.95028h-14.71479v12.88779h15.62829z"
                            data-paper-data='{"glyphName":"E","glyphIndex":7,"lastGlyphOfWord":true,"word":2}'
                            fill-rule="nonzero"
                            style="fill: rgb(0, 0, 0)"
                        ></path>
                        <g
                            data-paper-data='{"fillRule":"evenodd","fillRuleOriginal":"evenodd","isIcon":true,"iconStyle":"icon-in-text","selectedEffects":{"container":"","transformation":"rotate0;translate50","pattern":""},"bounds":{"x":225.02745757564472,"y":193.6755783936772,"width":77.25566851875166,"height":55.16811837790354},"iconType":"icon","rawIconId":"3322546","isDetailed":false,"suitableAsStandaloneIcon":true}'
                            fill-rule="evenodd"
                        >
                            <path
                                d="M283.45838,194.43144c0.48401,-0.48401 1.14059,-0.75587 1.82506,-0.75587v0.0086c0.68446,0 1.34105,0.27186 1.82506,0.75587c0.48401,0.48401 0.75587,1.14059 0.75587,1.82506v49.99767c0,1.42536 -1.15557,2.58092 -2.58092,2.58092c-1.42536,0 -2.58092,-1.15557 -2.58092,-2.58092v-50.00627c0,-0.68446 0.27186,-1.34105 0.75587,-1.82506zM239.44622,198.58105c0,-1.42536 1.15557,-2.58092 2.58092,-2.58092v0.0086c1.42536,0 2.58092,1.15557 2.58092,2.58092v45.34856c0,1.42536 -1.15557,2.58092 -2.58092,2.58092c-1.42536,0 -2.58092,-1.15557 -2.58092,-2.58092zM297.12128,203.71365c0,-1.42536 1.15557,-2.58092 2.58092,-2.58092c1.42536,0 2.58092,1.15557 2.58092,2.58092v35.11778c0,1.42536 -1.15557,2.58092 -2.58092,2.58092c-1.42536,0 -2.58092,-1.15557 -2.58092,-2.58092zM253.86499,205.09187c0,-1.42536 1.15557,-2.58092 2.58092,-2.58092v0.0086c0.68446,0 1.34105,0.27186 1.82506,0.75587c0.48401,0.48401 0.75587,1.14059 0.75587,1.82506v32.32694c0,1.42536 -1.15557,2.58092 -2.58092,2.58092c-1.42536,0 -2.58092,-1.15557 -2.58092,-2.58092zM230.1893,236.03199v-29.5361c0,-1.42536 -1.15557,-2.58092 -2.58092,-2.58092c-1.42536,0 -2.58092,1.15557 -2.58092,2.58092v29.5361c0,1.42536 1.15557,2.58092 2.58092,2.58092c1.42536,0 2.58092,-1.15557 2.58092,-2.58092zM268.28375,210.67527c0,-1.42536 1.15557,-2.58092 2.58092,-2.58092v0.0086c1.42209,0 2.57611,1.15023 2.58092,2.57232v21.16358c0,1.42536 -1.15557,2.58092 -2.58092,2.58092c-1.42536,0 -2.58092,-1.15557 -2.58092,-2.58092z"
                                data-paper-data='{"isPathIcon":true}'
                                style="fill: rgb(0, 0, 0)"
                            ></path>
                        </g>
                    </g>
                </g>
            </g>
        </svg>