<svg
            xmlns:mydata="http://www.w3.org/2000/svg"
            mydata:contrastcolor="11111f"
            mydata:template="Contrast"
            mydata:presentation="2.5"
            mydata:layouttype="undefined"
            mydata:specialfontid="undefined"
            mydata:id1="185"
            mydata:id2="219"
            mydata:companyname="Cine Wave"
            mydata:companytagline="Riding the Sine Waves of Cinematic Brilliance"
            version="1.1"
            xmlns="http://www.w3.org/2000/svg"
            xmlns:xlink="http://www.w3.org/1999/xlink"
            viewBox="65 193.6755783936772 420 82.64884321264555"
            style="filter: drop-shadow(rgba(0, 0, 0, 0.4) 3px 2px 4px);"
        >
            <g
                fill="#11111f"
                fill-rule="none"
                stroke="none"
                stroke-width="1"
                stroke-linecap="butt"
                stroke-linejoin="miter"
                stroke-miterlimit="10"
                stroke-dasharray=""
                stroke-dashoffset="0"
                font-family="none"
                font-weight="none"
                font-size="none"
                text-anchor="none"
                style="mix-blend-mode: normal"
            >
                <g
                    data-paper-data='{"isGlobalGroup":true,"bounds":{"x":65,"y":193.6755783936772,"width":420,"height":82.64884321264555}}'
                >
                    <g data-paper-data='{"isPrimaryText":true}'>
                        <path
                            d="M82.28247,206.95222c-3.88444,0 -6.93768,1.3003 -9.15971,3.9009c-2.22203,2.6006 -3.33305,6.15585 -3.33305,10.66575c0,4.65804 1.0781,8.25032 3.23429,10.77686c2.15619,2.52653 5.22589,3.7898 9.20909,3.7898c2.56768,0 5.45632,-0.47733 8.66593,-1.43198v3.95028c-1.53073,0.55962 -3.00386,0.94231 -4.41937,1.14805c-1.41552,0.20574 -3.04501,0.30862 -4.88847,0.30862c-5.31642,0 -9.41072,-1.61715 -12.2829,-4.85144c-2.87218,-3.23429 -4.30827,-7.81415 -4.30827,-13.73956c0,-3.71985 0.68718,-6.97883 2.06155,-9.77694c1.37437,-2.79811 3.3742,-4.95431 5.99949,-6.46858c2.62529,-1.51427 5.71556,-2.27141 9.27081,-2.27141c3.8186,0 7.14342,0.70776 9.97446,2.12328l-1.827,3.85152c-2.88041,-1.31676 -5.61269,-1.97514 -8.19683,-1.97514z"
                            data-paper-data='{"glyphName":"C","glyphIndex":0,"firstGlyphOfWord":true,"word":1}'
                            fill-rule="nonzero"
                            style="fill: rgb(0, 0, 0)"
                        ></path>
                        <path
                            d="M119.45625,239.56671h-13.03592v-2.61706l4.24655,-0.96288v-28.88642l-4.24655,-1.01226v-2.61706h13.03592v2.61706l-4.24655,1.01226v28.88642l4.24655,0.96288z"
                            data-paper-data='{"glyphName":"I","glyphIndex":1,"word":1}'
                            fill-rule="nonzero"
                            style="fill: rgb(0, 0, 0)"
                        ></path>
                        <path
                            d="M165.59221,239.56671h-5.30819l-19.33168,-29.97274h-0.19751l0.12345,1.99983c0.19751,2.99563 0.29627,5.59623 0.29627,7.8018v20.17111h-4.19717v-36.09568h5.25881l1.11102,1.75294l11.85084,18.31942l6.29576,9.80163h0.19751c-0.03292,-0.39503 -0.09876,-1.80643 -0.19751,-4.23421c-0.09876,-2.42778 -0.14814,-4.18483 -0.14814,-5.27115v-20.36863h4.24655z"
                            data-paper-data='{"glyphName":"N","glyphIndex":2,"word":1}'
                            fill-rule="nonzero"
                            style="fill: rgb(0, 0, 0)"
                        ></path>
                        <path
                            d="M206.09904,239.56671h-20.17111v-36.09568h20.17111v3.99966h-15.62829v11.2583h14.71479v3.95028h-14.71479v12.88779h15.62829z"
                            data-paper-data='{"glyphName":"E","glyphIndex":3,"lastGlyphOfWord":true,"word":1}'
                            fill-rule="nonzero"
                            style="fill: rgb(0, 0, 0)"
                        ></path>
                        <path
                            d="M357.3566,239.56671h-4.5922l-7.03643,-23.6523c-1.03695,-3.52233 -1.64595,-5.90073 -1.827,-7.13519c-0.26335,1.89284 -0.83943,4.32062 -1.72825,7.28333l-6.81423,23.50416h-4.5922l-9.55474,-36.09568h4.74034l5.60446,22.0475c0.75714,2.88041 1.33322,5.74436 1.72825,8.59186c0.36211,-2.69936 1.00403,-5.65384 1.92576,-8.86344l6.36983,-21.77591h4.69096l6.64141,21.94874c0.85589,2.84749 1.51427,5.74436 1.97514,8.69061c0.26335,-2.27141 0.84766,-5.15182 1.75294,-8.64124l5.57977,-21.99812h4.74034z"
                            data-paper-data='{"glyphName":"W","glyphIndex":4,"firstGlyphOfWord":true,"word":2}'
                            fill-rule="nonzero"
                            style="fill: rgb(0, 0, 0)"
                        ></path>
                        <path
                            d="M404.72703,239.56671l-4.34531,-11.18423h-14.31976l-4.29593,11.18423h-4.5922l14.09756,-36.24381h4.09841l14.07287,36.24381zM399.02382,224.35814l-4.04904,-10.93734l-1.72825,-5.40694c-0.49378,1.97514 -1.01226,3.77745 -1.55542,5.40694l-4.09841,10.93734z"
                            data-paper-data='{"glyphName":"A","glyphIndex":5,"word":2}'
                            fill-rule="nonzero"
                            style="fill: rgb(0, 0, 0)"
                        ></path>
                        <path
                            d="M419.03857,203.47104h4.76502l8.12276,23.15851c1.03695,2.92979 1.79409,5.55508 2.27141,7.87587c0.41149,-2.0739 1.17685,-4.73211 2.2961,-7.97463l8.07338,-23.05976h4.8144l-12.88779,36.09568h-4.56751z"
                            data-paper-data='{"glyphName":"V","glyphIndex":6,"word":2}'
                            fill-rule="nonzero"
                            style="fill: rgb(0, 0, 0)"
                        ></path>
                        <path
                            d="M485,239.56671h-20.17111v-36.09568h20.17111v3.99966h-15.62829v11.2583h14.71479v3.95028h-14.71479v12.88779h15.62829z"
                            data-paper-data='{"glyphName":"E","glyphIndex":7,"lastGlyphOfWord":true,"word":2}'
                            fill-rule="nonzero"
                            style="fill: rgb(0, 0, 0)"
                        ></path>
                        <g
                            data-paper-data='{"fillRule":"evenodd","fillRuleOriginal":"evenodd","isIcon":true,"iconStyle":"icon-in-text","selectedEffects":{"container":"","transformation":"rotate0;translate50","pattern":""},"bounds":{"x":225.02745757564472,"y":193.6755783936772,"width":77.25566851875166,"height":55.16811837790354},"iconType":"icon","rawIconId":"3322546","isDetailed":false,"suitableAsStandaloneIcon":true}'
                            fill-rule="evenodd"
                        >
                            <path
                                d="M283.45838,194.43144c0.48401,-0.48401 1.14059,-0.75587 1.82506,-0.75587v0.0086c0.68446,0 1.34105,0.27186 1.82506,0.75587c0.48401,0.48401 0.75587,1.14059 0.75587,1.82506v49.99767c0,1.42536 -1.15557,2.58092 -2.58092,2.58092c-1.42536,0 -2.58092,-1.15557 -2.58092,-2.58092v-50.00627c0,-0.68446 0.27186,-1.34105 0.75587,-1.82506zM239.44622,198.58105c0,-1.42536 1.15557,-2.58092 2.58092,-2.58092v0.0086c1.42536,0 2.58092,1.15557 2.58092,2.58092v45.34856c0,1.42536 -1.15557,2.58092 -2.58092,2.58092c-1.42536,0 -2.58092,-1.15557 -2.58092,-2.58092zM297.12128,203.71365c0,-1.42536 1.15557,-2.58092 2.58092,-2.58092c1.42536,0 2.58092,1.15557 2.58092,2.58092v35.11778c0,1.42536 -1.15557,2.58092 -2.58092,2.58092c-1.42536,0 -2.58092,-1.15557 -2.58092,-2.58092zM253.86499,205.09187c0,-1.42536 1.15557,-2.58092 2.58092,-2.58092v0.0086c0.68446,0 1.34105,0.27186 1.82506,0.75587c0.48401,0.48401 0.75587,1.14059 0.75587,1.82506v32.32694c0,1.42536 -1.15557,2.58092 -2.58092,2.58092c-1.42536,0 -2.58092,-1.15557 -2.58092,-2.58092zM230.1893,236.03199v-29.5361c0,-1.42536 -1.15557,-2.58092 -2.58092,-2.58092c-1.42536,0 -2.58092,1.15557 -2.58092,2.58092v29.5361c0,1.42536 1.15557,2.58092 2.58092,2.58092c1.42536,0 2.58092,-1.15557 2.58092,-2.58092zM268.28375,210.67527c0,-1.42536 1.15557,-2.58092 2.58092,-2.58092v0.0086c1.42209,0 2.57611,1.15023 2.58092,2.57232v21.16358c0,1.42536 -1.15557,2.58092 -2.58092,2.58092c-1.42536,0 -2.58092,-1.15557 -2.58092,-2.58092z"
                                data-paper-data='{"isPathIcon":true}'
                                style="fill: rgb(0, 0, 0)"
                            ></path>
                        </g>
                    </g>
                </g>
            </g>
        </svg>